<mxfile host="Electron" agent="Mozilla/5.0 (Windows NT 10.0; Win64; x64) AppleWebKit/537.36 (KHTML, like Gecko) draw.io/24.7.17 Chrome/128.0.6613.36 Electron/32.0.1 Safari/537.36" version="24.7.17">
  <diagram name="Page-1" id="rFN7BH7jZwcIQmPE8DE1">
    <mxGraphModel dx="1036" dy="703" grid="1" gridSize="10" guides="1" tooltips="1" connect="1" arrows="1" fold="1" page="1" pageScale="1" pageWidth="1700" pageHeight="1100" math="0" shadow="0">
      <root>
        <mxCell id="0" />
        <mxCell id="1" parent="0" />
        <mxCell id="NKDO169QcMg4LV9zWofI-31" value="" style="group" parent="1" vertex="1" connectable="0">
          <mxGeometry x="40" y="41" width="560" height="520" as="geometry" />
        </mxCell>
        <mxCell id="NKDO169QcMg4LV9zWofI-32" value="Browser" style="strokeWidth=1;shadow=0;dashed=0;align=center;html=1;shape=mxgraph.mockup.containers.window;align=left;verticalAlign=top;spacingLeft=8;strokeColor2=#008cff;strokeColor3=#c4c4c4;fontColor=#666666;mainText=;fontSize=17;labelBackgroundColor=none;whiteSpace=wrap;" parent="NKDO169QcMg4LV9zWofI-31" vertex="1">
          <mxGeometry width="560" height="520" as="geometry" />
        </mxCell>
        <mxCell id="NKDO169QcMg4LV9zWofI-42" value="Image Title" style="text;strokeColor=none;fillColor=none;html=1;fontSize=12;fontStyle=1;verticalAlign=middle;align=center;spacing=0;" parent="NKDO169QcMg4LV9zWofI-31" vertex="1">
          <mxGeometry x="57.30666666666668" y="260" width="90.06175438596492" height="20" as="geometry" />
        </mxCell>
        <mxCell id="NKDO169QcMg4LV9zWofI-85" value="" style="verticalLabelPosition=bottom;shadow=0;dashed=0;align=center;html=1;verticalAlign=top;strokeWidth=1;shape=mxgraph.mockup.graphics.simpleIcon;strokeColor=#999999;" parent="NKDO169QcMg4LV9zWofI-31" vertex="1">
          <mxGeometry x="18.008421052631576" y="150" width="168.65824561403508" height="100" as="geometry" />
        </mxCell>
        <mxCell id="75pb4Dz-YG3rhDbxtD5_-1" value="" style="verticalLabelPosition=bottom;shadow=0;dashed=0;align=center;html=1;verticalAlign=top;strokeWidth=1;shape=mxgraph.mockup.graphics.simpleIcon;strokeColor=#999999;" vertex="1" parent="NKDO169QcMg4LV9zWofI-31">
          <mxGeometry x="196.49122807017545" y="150" width="168.65824561403508" height="100" as="geometry" />
        </mxCell>
        <mxCell id="75pb4Dz-YG3rhDbxtD5_-2" value="" style="verticalLabelPosition=bottom;shadow=0;dashed=0;align=center;html=1;verticalAlign=top;strokeWidth=1;shape=mxgraph.mockup.graphics.simpleIcon;strokeColor=#999999;" vertex="1" parent="NKDO169QcMg4LV9zWofI-31">
          <mxGeometry x="371.6926315789473" y="150" width="168.65824561403508" height="100" as="geometry" />
        </mxCell>
        <mxCell id="75pb4Dz-YG3rhDbxtD5_-4" value="Image Title" style="text;strokeColor=none;fillColor=none;html=1;fontSize=12;fontStyle=1;verticalAlign=middle;align=center;spacing=0;" vertex="1" parent="NKDO169QcMg4LV9zWofI-31">
          <mxGeometry x="234.9740350877193" y="260" width="90.06175438596492" height="20" as="geometry" />
        </mxCell>
        <mxCell id="75pb4Dz-YG3rhDbxtD5_-5" value="Image Title" style="text;strokeColor=none;fillColor=none;html=1;fontSize=12;fontStyle=1;verticalAlign=middle;align=center;spacing=0;" vertex="1" parent="NKDO169QcMg4LV9zWofI-31">
          <mxGeometry x="410.99087719298245" y="260" width="90.06175438596492" height="20" as="geometry" />
        </mxCell>
        <mxCell id="75pb4Dz-YG3rhDbxtD5_-6" value="GIF&#xa;Finder" style="text;strokeColor=none;fillColor=none;fontSize=14;fontStyle=1;verticalAlign=middle;align=center;spacing=0;" vertex="1" parent="NKDO169QcMg4LV9zWofI-31">
          <mxGeometry x="10" y="40" width="70" height="40" as="geometry" />
        </mxCell>
        <mxCell id="75pb4Dz-YG3rhDbxtD5_-7" value="" style="verticalLabelPosition=bottom;shadow=0;dashed=0;align=center;html=1;verticalAlign=top;strokeWidth=1;shape=mxgraph.mockup.graphics.simpleIcon;strokeColor=#999999;" vertex="1" parent="NKDO169QcMg4LV9zWofI-31">
          <mxGeometry x="18.008421052631576" y="290" width="168.65824561403508" height="100" as="geometry" />
        </mxCell>
        <mxCell id="75pb4Dz-YG3rhDbxtD5_-8" value="" style="verticalLabelPosition=bottom;shadow=0;dashed=0;align=center;html=1;verticalAlign=top;strokeWidth=1;shape=mxgraph.mockup.graphics.simpleIcon;strokeColor=#999999;" vertex="1" parent="NKDO169QcMg4LV9zWofI-31">
          <mxGeometry x="196.49122807017545" y="290" width="168.65824561403508" height="100" as="geometry" />
        </mxCell>
        <mxCell id="75pb4Dz-YG3rhDbxtD5_-9" value="" style="verticalLabelPosition=bottom;shadow=0;dashed=0;align=center;html=1;verticalAlign=top;strokeWidth=1;shape=mxgraph.mockup.graphics.simpleIcon;strokeColor=#999999;" vertex="1" parent="NKDO169QcMg4LV9zWofI-31">
          <mxGeometry x="371.6926315789473" y="290" width="168.65824561403508" height="100" as="geometry" />
        </mxCell>
        <mxCell id="75pb4Dz-YG3rhDbxtD5_-10" value="Image Title" style="text;strokeColor=none;fillColor=none;html=1;fontSize=12;fontStyle=1;verticalAlign=middle;align=center;spacing=0;" vertex="1" parent="NKDO169QcMg4LV9zWofI-31">
          <mxGeometry x="234.9740350877193" y="400" width="90.06175438596492" height="20" as="geometry" />
        </mxCell>
        <mxCell id="75pb4Dz-YG3rhDbxtD5_-11" value="Image Title" style="text;strokeColor=none;fillColor=none;html=1;fontSize=12;fontStyle=1;verticalAlign=middle;align=center;spacing=0;" vertex="1" parent="NKDO169QcMg4LV9zWofI-31">
          <mxGeometry x="410.99087719298245" y="400" width="90.06175438596492" height="20" as="geometry" />
        </mxCell>
        <mxCell id="75pb4Dz-YG3rhDbxtD5_-15" value="Image Title" style="text;strokeColor=none;fillColor=none;html=1;fontSize=12;fontStyle=1;verticalAlign=middle;align=center;spacing=0;" vertex="1" parent="NKDO169QcMg4LV9zWofI-31">
          <mxGeometry x="57.30403508771931" y="400" width="90.06175438596492" height="20" as="geometry" />
        </mxCell>
        <mxCell id="75pb4Dz-YG3rhDbxtD5_-16" value="Prev" style="strokeWidth=1;shadow=0;dashed=0;align=center;html=1;shape=mxgraph.mockup.buttons.button;strokeColor=#666666;fontColor=#000000;mainText=;buttonStyle=round;fontSize=12;fontStyle=0;fillColor=none;whiteSpace=wrap;fontFamily=Verdana;" vertex="1" parent="NKDO169QcMg4LV9zWofI-31">
          <mxGeometry x="196.49" y="450" width="60" height="30" as="geometry" />
        </mxCell>
        <mxCell id="75pb4Dz-YG3rhDbxtD5_-17" value="Next" style="strokeWidth=1;shadow=0;dashed=0;align=center;html=1;shape=mxgraph.mockup.buttons.button;strokeColor=#666666;fontColor=#000000;mainText=;buttonStyle=round;fontSize=12;fontStyle=0;fillColor=none;whiteSpace=wrap;fontFamily=Verdana;" vertex="1" parent="NKDO169QcMg4LV9zWofI-31">
          <mxGeometry x="305.15" y="450" width="60" height="30" as="geometry" />
        </mxCell>
        <mxCell id="75pb4Dz-YG3rhDbxtD5_-18" value="Page n of n" style="text;strokeColor=none;fillColor=none;html=1;fontSize=12;fontStyle=1;verticalAlign=middle;align=center;spacing=0;" vertex="1" parent="NKDO169QcMg4LV9zWofI-31">
          <mxGeometry x="234.96666666666664" y="490" width="90.06175438596492" height="20" as="geometry" />
        </mxCell>
        <mxCell id="75pb4Dz-YG3rhDbxtD5_-21" value="Keyword" style="rounded=1;whiteSpace=wrap;html=1;align=left;" vertex="1" parent="NKDO169QcMg4LV9zWofI-31">
          <mxGeometry x="420.35" y="50" width="120" height="20" as="geometry" />
        </mxCell>
        <mxCell id="75pb4Dz-YG3rhDbxtD5_-23" value="Search" style="strokeWidth=1;shadow=0;dashed=0;align=center;html=1;shape=mxgraph.mockup.buttons.button;strokeColor=#666666;fontColor=#000000;mainText=;buttonStyle=round;fontSize=12;fontStyle=0;fillColor=none;whiteSpace=wrap;fontFamily=Verdana;" vertex="1" parent="NKDO169QcMg4LV9zWofI-31">
          <mxGeometry x="470.35" y="80" width="70" height="20" as="geometry" />
        </mxCell>
        <mxCell id="75pb4Dz-YG3rhDbxtD5_-30" value="Search for" style="strokeWidth=1;shadow=0;dashed=0;align=center;html=1;shape=mxgraph.mockup.forms.comboBox;strokeColor=default;fillColor=none;align=left;fillColor2=#aaddff;mainText=;fontColor=default;fontSize=12;spacingLeft=3;fontFamily=Verdana;" vertex="1" parent="NKDO169QcMg4LV9zWofI-31">
          <mxGeometry x="280.99" y="50" width="130" height="20" as="geometry" />
        </mxCell>
      </root>
    </mxGraphModel>
  </diagram>
</mxfile>
